<?xml version="1.0" encoding="utf-8"?>
<!-- Generator: Adobe Illustrator 19.1.0, SVG Export Plug-In . SVG Version: 6.00 Build 0)  -->
<svg version="1.1" xmlns="http://www.w3.org/2000/svg" xmlns:xlink="http://www.w3.org/1999/xlink" x="0px" y="0px"
	 viewBox="0 0 15.7 18.9" enable-background="new 0 0 15.7 18.9" xml:space="preserve">
<g id="Layer_2">
</g>
<g id="Layer_5">
</g>
<g id="Layer_1">
	<g>
		<path fill="#8151A8" d="M12.7,18.9H3c-1.7,0-3-1.4-3-3V3c0-1.7,1.4-3,3-3h6.6c0.9,0,1.9,0.5,2.4,1.2l3,4c0.4,0.5,0.6,1.2,0.6,1.8
			v8.8C15.7,17.5,14.4,18.9,12.7,18.9z M3,1C1.9,1,1,1.9,1,3v12.8c0,1.1,0.9,2,2,2h9.6c1.1,0,2-0.9,2-2V7c0-0.4-0.1-0.9-0.4-1.2
			l-3-4C10.9,1.3,10.3,1,9.7,1H3z"/>
	</g>
	<g>
		<path fill="#8151A8" d="M14.7,7h-4.1C9.9,7,9.3,6.5,9.3,5.8V0.9c0-0.3,0.2-0.5,0.5-0.5s0.5,0.2,0.5,0.5v4.9c0,0.1,0.1,0.3,0.3,0.3
			h4.1c0.3,0,0.5,0.2,0.5,0.5S15,7,14.7,7z"/>
	</g>
</g>
<g id="Layer_3" display="none">
</g>
<g id="Layer_4">
</g>
</svg>
