<?xml version="1.0" encoding="utf-8"?>
<!-- Generator: Adobe Illustrator 19.1.0, SVG Export Plug-In . SVG Version: 6.00 Build 0)  -->
<svg version="1.1" id="Layer_1" xmlns="http://www.w3.org/2000/svg" xmlns:xlink="http://www.w3.org/1999/xlink" x="0px" y="0px"
	 viewBox="-245 248.3 350 100" enable-background="new -245 248.3 350 100" xml:space="preserve">
<path id="XMLID_533_" fill="#3CC1A7" d="M-235,248.3H95c5.5,0,10,4.5,10,10v80c0,5.5-4.5,10-10,10h-330c-5.5,0-10-4.5-10-10v-80
	C-245,252.8-240.5,248.3-235,248.3z"/>
<g id="XMLID_435_">
	<g id="XMLID_463_">
		<path id="XMLID_477_" fill="#231F20" d="M-79.8,314.2h-12.4v-26.1h12.1c5.3,0,8.6,2.6,8.6,6.7v0.1c0,2.9-1.6,4.6-3.4,5.6
			c3,1.2,4.9,2.9,4.9,6.4v0.1C-70,311.8-73.9,314.2-79.8,314.2z M-77.2,295.8c0-1.7-1.3-2.7-3.8-2.7h-5.7v5.5h5.3
			C-78.8,298.6-77.2,297.8-77.2,295.8L-77.2,295.8z M-75.7,306.2c0-1.8-1.3-2.8-4.2-2.8h-6.6v5.7h6.8
			C-77.2,309.1-75.7,308.3-75.7,306.2L-75.7,306.2z"/>
		<path id="XMLID_475_" fill="#231F20" d="M-64.5,314.2v-26.1h5.7v26.1H-64.5z"/>
		<path id="XMLID_473_" fill="#231F20" d="M-39.8,293.4v20.8h-5.7v-20.8h-7.9v-5.3h21.6v5.3H-39.8z"/>
		<path id="XMLID_470_" fill="#231F20" d="M-10.7,314.2l-5.6-8.3h-4.5v8.3h-5.7v-26.1h11.9c6.1,0,9.8,3.2,9.8,8.6v0.1
			c0,4.2-2.3,6.9-5.6,8.1l6.4,9.3H-10.7z M-10.6,297c0-2.5-1.7-3.7-4.5-3.7h-5.7v7.5h5.8C-12.2,300.8-10.6,299.3-10.6,297L-10.6,297
			z"/>
		<path id="XMLID_468_" fill="#231F20" d="M1.9,314.2v-26.1h5.7v26.1H1.9z"/>
		<path id="XMLID_466_" fill="#231F20" d="M24.7,314.5c-3.9,0-7.9-1.4-11.1-4.2l3.4-4c2.3,1.9,4.8,3.2,7.8,3.2
			c2.3,0,3.8-0.9,3.8-2.5v-0.1c0-1.5-0.9-2.2-5.3-3.3c-5.3-1.3-8.6-2.8-8.6-8v-0.1c0-4.7,3.8-7.9,9.1-7.9c3.8,0,7,1.2,9.7,3.3
			l-3,4.3c-2.3-1.6-4.6-2.6-6.8-2.6c-2.2,0-3.4,1-3.4,2.3v0.1c0,1.7,1.1,2.3,5.6,3.4c5.3,1.4,8.3,3.3,8.3,7.8v0.1
			C34.3,311.6,30.3,314.5,24.7,314.5z"/>
		<path id="XMLID_464_" fill="#231F20" d="M40.7,314.2v-26.1h19.7v5.1h-14v5.3h12.3v5.1H46.4v5.5h14.2v5.1
			C60.6,314.2,40.7,314.2,40.7,314.2z"/>
	</g>
	<g id="XMLID_461_">
		<rect id="XMLID_462_" x="-123.8" y="275.7" fill="#231F20" width="4.1" height="51.1"/>
	</g>
	<g id="XMLID_457_">
		<path id="XMLID_458_" fill="#231F20" d="M-153.5,306.2c-3.7,0-6.7-3-6.7-6.7c0-3.7,3-6.7,6.7-6.7s6.7,3,6.7,6.7
			C-146.8,303.2-149.8,306.2-153.5,306.2z M-153.5,296c-1.9,0-3.5,1.6-3.5,3.5c0,1.9,1.6,3.5,3.5,3.5c2,0,3.5-1.6,3.5-3.5
			C-150,297.5-151.5,296-153.5,296z"/>
	</g>
	<g id="XMLID_453_">
		<path id="XMLID_454_" fill="#231F20" d="M-193.8,306.2c-3.7,0-6.7-3-6.7-6.7c0-3.7,3-6.7,6.7-6.7s6.7,3,6.7,6.7
			C-187.1,303.2-190.1,306.2-193.8,306.2z M-193.8,296c-2,0-3.5,1.6-3.5,3.5c0,1.9,1.6,3.5,3.5,3.5c1.9,0,3.5-1.6,3.5-3.5
			C-190.3,297.5-191.9,296-193.8,296z"/>
	</g>
	<g id="XMLID_448_">
		<rect id="XMLID_452_" x="-193.7" y="285.4" fill="#FFFFFF" width="40.2" height="36"/>
		<path id="XMLID_449_" fill="#231F20" d="M-151.9,323.1h-43.4v-39.2h43.4C-151.9,283.9-151.9,323.1-151.9,323.1z M-192.1,319.9h37
			V287h-37V319.9z"/>
	</g>
	<g id="XMLID_446_">
		<path id="XMLID_447_" fill="#231F20" d="M-179.8,300.8h-2.3c0-0.8-0.7-1.5-1.5-1.5c-0.8,0-1.5,0.7-1.5,1.5h-2.3
			c0-2.1,1.7-3.8,3.8-3.8C-181.5,297-179.8,298.7-179.8,300.8z"/>
	</g>
	<g id="XMLID_444_">
		<path id="XMLID_445_" fill="#231F20" d="M-158.2,300.8h-2.3c0-0.8-0.7-1.5-1.5-1.5s-1.5,0.7-1.5,1.5h-2.3c0-2.1,1.7-3.8,3.8-3.8
			S-158.2,298.7-158.2,300.8z"/>
	</g>
	<g id="XMLID_442_">
		<rect id="XMLID_443_" x="-175.2" y="275.9" fill="#231F20" width="3.2" height="9.6"/>
	</g>
	<g id="XMLID_438_">
		<path id="XMLID_439_" fill="#231F20" d="M-169,279h-9.1v-9.1h9.1V279z M-174.9,275.8h2.7v-2.7h-2.7V275.8z"/>
	</g>
	<g id="XMLID_436_">
		<rect id="XMLID_437_" x="-193.8" y="309.6" fill="#231F20" width="40.4" height="3.2"/>
	</g>
</g>
</svg>
