<?xml version="1.0" encoding="utf-8"?>
<!-- Generator: Adobe Illustrator 19.1.0, SVG Export Plug-In . SVG Version: 6.00 Build 0)  -->
<svg version="1.1" xmlns="http://www.w3.org/2000/svg" xmlns:xlink="http://www.w3.org/1999/xlink" x="0px" y="0px"
	 viewBox="0 0 317.4 56.8" enable-background="new 0 0 317.4 56.8" xml:space="preserve">
<g id="Layer_2">
</g>
<g id="Layer_5">
</g>
<g id="Layer_1">
	<g>
		<g>
			<g>
				<path fill="#FFFFFF" d="M16.8,42.6H0v-35h16.4c7.2,0,11.6,2.9,11.6,8.5v0.1c0,4-2.1,6.2-4.6,7.6c4.1,1.6,6.6,3.9,6.6,8.6v0.1
					C30,38.9,24.8,42.6,16.8,42.6z M20,17.4c0-2.3-1.5-3.8-4.7-3.8H8v8h6.8c3.4,0,5.2-1.5,5.2-4.1V17.4z M22,31.4
					c0-2.4-1.4-3.8-5.4-3.8H8v8h8.8c3.4,0,5.2-1.5,5.2-4.1V31.4z"/>
				<path fill="#FFFFFF" d="M37,42.6v-35h8v35H37z"/>
				<path fill="#FFFFFF" d="M71,14.6v28h-8v-28H52v-7h29v7H71z"/>
				<path fill="#FFFFFF" d="M109.9,42.6l-7.5-11H96v11h-7v-35h15.6c8.3,0,13.4,3.7,13.4,11v0.1c0,5.7-3.1,9.5-7.6,11.1l8.5,12.8
					H109.9z M110,19c0-3.3-2.3-4.4-6.1-4.4H96v10h8.1c3.8,0,5.9-2.6,5.9-5.5V19z"/>
				<path fill="#FFFFFF" d="M127,42.6v-35h8v35H127z"/>
				<path fill="#FFFFFF" d="M157.9,42.6c-5.3,0-10.8-1.9-15-5.6l4.5-5.5c3.2,2.6,6.5,4.3,10.5,4.3c3.2,0,5.1-1.3,5.1-3.3v-0.1
					c0-2-1.3-3-7.2-4.5c-7.1-1.8-11.8-3.8-11.8-10.7v-0.1c0-6.4,5.2-10.6,12.4-10.6c5.1,0,9.5,1.6,13.1,4.5l-4,5.8
					c-3.1-2.2-6.1-3.5-9-3.5c-3,0-4.4,1.4-4.4,3.1v0.1c0,2.3,1.6,3.1,7.7,4.6c7.1,1.9,11.3,4.4,11.3,10.5v0.1
					C171,38.7,165.5,42.6,157.9,42.6z"/>
				<path fill="#FFFFFF" d="M179,42.6v-35h27v7h-19v7h16v7h-16v7h19v7H179z"/>
			</g>
		</g>
		<g>
			<path fill="#FFFFFF" d="M222.4,41.4h3.8V7.5h-3.8V6.8h8V25h0.1c0.5-1.3,1.2-2.3,2.3-3.2s2.6-1.3,4.4-1.3c1.4,0,2.7,0.3,4,0.9
				c1.2,0.6,2.3,1.4,3.3,2.4c0.9,1,1.7,2.2,2.3,3.5c0.6,1.3,0.8,2.7,0.8,4.2c0,1.5-0.3,2.9-0.9,4.3c-0.6,1.4-1.3,2.6-2.3,3.6
				c-1,1-2.1,1.9-3.4,2.5c-1.3,0.6-2.7,0.9-4.1,0.9c-1.1,0-2-0.2-2.8-0.6c-0.8-0.4-1.4-0.8-1.9-1.3c-0.5-0.5-0.9-1.1-1.1-1.6
				c-0.3-0.6-0.5-1-0.6-1.4h-0.1v4.3h-7.9V41.4z M242.6,30.9c0-1.5-0.1-2.8-0.2-4c-0.2-1.2-0.4-2.2-0.9-3.1c-0.4-0.8-1-1.5-1.7-2
				c-0.7-0.5-1.7-0.7-2.8-0.7c-1.2,0-2.2,0.2-3,0.6s-1.4,1-1.9,1.6c-0.4,0.5-0.6,0.9-0.9,1.5c-0.2,0.5-0.4,1.1-0.5,1.9
				c-0.1,0.7-0.2,1.5-0.3,2.5s-0.1,2-0.1,3.3c0,1.1,0.1,2.2,0.2,3.3c0.2,1.1,0.5,2.2,0.9,3.1s1.1,1.7,1.9,2.3
				c0.8,0.6,1.9,0.9,3.3,0.9c1.3,0,2.4-0.3,3.2-0.8c0.8-0.5,1.4-1.3,1.8-2.3c0.4-1,0.6-2.2,0.7-3.5S242.6,32.6,242.6,30.9z"/>
			<path fill="#FFFFFF" d="M251.4,41.4h3.8V7.5h-3.8V6.8h8v34.6h3.8v0.7h-11.7V41.4z"/>
			<path fill="#FFFFFF" d="M266.7,31.6c0-1.6,0.4-3.1,1.1-4.5c0.7-1.4,1.6-2.6,2.7-3.5c1.1-1,2.3-1.8,3.7-2.3c1.4-0.6,2.7-0.8,4-0.8
				c1.3,0,2.6,0.3,4,0.8c1.4,0.6,2.6,1.3,3.7,2.3c1.1,1,2,2.2,2.7,3.5c0.7,1.4,1.1,2.9,1.1,4.5c0,1.5-0.3,3-1,4.3
				c-0.7,1.4-1.5,2.5-2.6,3.5s-2.3,1.8-3.6,2.4c-1.4,0.6-2.8,0.9-4.2,0.9c-1.4,0-2.8-0.3-4.2-0.9c-1.4-0.6-2.6-1.4-3.6-2.4
				s-1.9-2.2-2.6-3.5C267,34.6,266.7,33.2,266.7,31.6z M271.6,31.6c0,2.3,0.2,4.2,0.5,5.5c0.4,1.4,0.8,2.4,1.4,3.2
				c0.6,0.7,1.3,1.2,2.1,1.4c0.8,0.2,1.6,0.3,2.5,0.3c0.9,0,1.7-0.1,2.5-0.3c0.8-0.2,1.5-0.7,2.1-1.4c0.6-0.7,1.1-1.8,1.4-3.2
				c0.4-1.4,0.5-3.2,0.5-5.5c0-2-0.1-3.6-0.4-4.9c-0.3-1.3-0.7-2.4-1.2-3.2s-1.2-1.4-2-1.8c-0.8-0.4-1.8-0.5-2.9-0.5
				c-1.1,0-2.1,0.2-2.9,0.5c-0.8,0.4-1.5,1-2,1.8c-0.5,0.8-0.9,1.9-1.2,3.2C271.7,28,271.6,29.7,271.6,31.6z"/>
			<path fill="#FFFFFF" d="M293.9,38.9c0-0.9,0.2-1.6,0.5-2.3c0.3-0.6,0.7-1.2,1.2-1.7c0.5-0.5,1-0.9,1.5-1.1c0.5-0.3,1-0.5,1.4-0.7
				c-1.9-1.3-2.8-3.1-2.8-5.3c0-1.1,0.3-2.2,0.8-3.1c0.6-0.9,1.3-1.7,2.1-2.3c0.8-0.6,1.8-1.1,2.8-1.4c1-0.3,2-0.5,3-0.5
				c1.5,0,2.7,0.3,3.8,0.9c1.1,0.6,1.8,1.1,2.3,1.6c0.4-0.6,0.9-1.2,1.6-1.7c0.7-0.5,1.6-0.8,2.6-0.8c0.7,0,1.3,0.1,1.8,0.4
				c0.6,0.3,0.8,0.9,0.8,1.8c0,0.6-0.2,1-0.6,1.3s-0.8,0.4-1.2,0.4c-0.5,0-0.8-0.1-1-0.4c-0.2-0.3-0.4-0.5-0.5-0.8
				c-0.1-0.3-0.3-0.6-0.5-0.8c-0.2-0.3-0.4-0.4-0.7-0.4c-0.3,0-0.7,0.1-1,0.4c-0.3,0.3-0.6,0.6-0.9,1c0.3,0.3,0.7,0.9,1.1,1.7
				c0.5,0.8,0.7,1.8,0.7,2.9c0,1-0.2,1.9-0.7,2.7c-0.5,0.8-1.1,1.5-1.9,2.2c-0.8,0.6-1.7,1.1-2.8,1.4c-1.1,0.3-2.1,0.5-3.3,0.5
				c-1.1,0-2.1-0.2-3-0.5c-0.8-0.3-1.5-0.6-2-0.8c-0.4,0.2-0.7,0.3-1.2,0.5c-0.4,0.2-0.8,0.4-1.1,0.7s-0.6,0.6-0.9,1.1
				c-0.2,0.4-0.3,0.9-0.3,1.4c0,0.5,0.1,0.9,0.3,1.2c0.2,0.3,0.4,0.6,0.8,0.7c0.3,0.2,0.7,0.3,1.1,0.3s0.8,0.1,1.2,0.1h7.7
				c2.3,0,4.1,0.5,5.5,1.6c1.4,1.1,2,2.8,2,5.2c0,1.4-0.3,2.7-0.9,3.9c-0.6,1.2-1.4,2.2-2.5,3.1c-1,0.9-2.2,1.5-3.5,2
				c-1.3,0.5-2.7,0.7-4.1,0.7c-1.3,0-2.4-0.1-3.5-0.4c-1.1-0.3-2-0.7-2.8-1.2c-0.8-0.5-1.4-1.1-1.8-1.8c-0.4-0.7-0.7-1.5-0.7-2.4
				c0-0.8,0.2-1.6,0.5-2.3c0.3-0.7,0.8-1.3,1.3-1.9c0.5-0.5,1.2-1,1.8-1.4s1.4-0.7,2.1-1v-0.1c-2.2,0-3.7-0.4-4.8-1.1
				C294.4,41.8,293.9,40.6,293.9,38.9z M301.2,43.6c-0.4,0.3-0.9,0.5-1.3,0.8c-0.4,0.3-0.8,0.6-1.2,1.1c-0.3,0.4-0.6,0.9-0.8,1.5
				c-0.2,0.6-0.3,1.3-0.3,2.1c0,1.2,0.2,2.1,0.6,2.9c0.4,0.8,0.9,1.4,1.6,1.9c0.6,0.5,1.3,0.8,2.1,1c0.8,0.2,1.5,0.3,2.3,0.3
				c1.2,0,2.2-0.2,3.2-0.5c1-0.4,1.8-0.8,2.5-1.4c0.7-0.6,1.2-1.3,1.6-2.1c0.4-0.8,0.6-1.6,0.6-2.4c0-1.8-0.5-3.1-1.5-3.9
				c-1-0.8-2.4-1.1-4.1-1.1H301.2z M309.2,27.7c0-0.8,0-1.5-0.1-2.3s-0.3-1.5-0.6-2.1c-0.3-0.6-0.8-1.1-1.4-1.5
				c-0.6-0.4-1.5-0.6-2.6-0.6c-1.7,0-2.9,0.5-3.8,1.5c-0.8,1-1.3,2.7-1.3,5c0,1,0.1,1.9,0.2,2.6c0.1,0.8,0.4,1.5,0.8,2
				c0.4,0.6,0.9,1,1.6,1.3s1.5,0.4,2.5,0.4c1.7,0,2.9-0.5,3.6-1.6C308.8,31.4,309.2,29.8,309.2,27.7z"/>
		</g>
	</g>
</g>
<g id="Layer_3" display="none">
</g>
<g id="Layer_4">
</g>
</svg>
