<svg xmlns="http://www.w3.org/2000/svg" viewBox="0 0 1756.04 415.72"><defs><style>.cls-1{fill:#3bc3a3;}.cls-2{fill:none;}.cls-2,.cls-3{stroke:#3bc3a3;stroke-linecap:round;stroke-linejoin:round;stroke-width:2px;}.cls-3{fill:#33e4b3;}</style></defs><title>Artboard 76</title><g id="Layer_2" data-name="Layer 2"><circle class="cls-1" cx="37.14" cy="2.14" r="2.14"/><circle class="cls-1" cx="108.14" cy="2.14" r="2.14"/><circle class="cls-1" cx="179.14" cy="2.14" r="2.14"/><circle class="cls-1" cx="250.14" cy="2.14" r="2.14"/><circle class="cls-1" cx="321.14" cy="2.14" r="2.14"/><circle class="cls-1" cx="392.14" cy="2.14" r="2.14"/><circle class="cls-1" cx="463.14" cy="2.14" r="2.14"/><circle class="cls-1" cx="534.14" cy="2.14" r="2.14"/><circle class="cls-1" cx="605.14" cy="2.14" r="2.14"/><circle class="cls-1" cx="676.14" cy="2.14" r="2.14"/><circle class="cls-1" cx="747.14" cy="2.14" r="2.14"/><circle class="cls-1" cx="818.14" cy="2.14" r="2.14"/><circle class="cls-1" cx="889.14" cy="2.14" r="2.14"/><circle class="cls-1" cx="960.14" cy="2.14" r="2.14"/><circle class="cls-1" cx="1031.14" cy="2.14" r="2.14"/><circle class="cls-1" cx="1102.14" cy="2.14" r="2.14"/><circle class="cls-1" cx="1173.14" cy="2.14" r="2.14"/><circle class="cls-1" cx="1244.14" cy="2.14" r="2.14"/><circle class="cls-1" cx="1315.14" cy="2.14" r="2.14"/><circle class="cls-1" cx="1386.14" cy="2.14" r="2.14"/><circle class="cls-1" cx="1457.14" cy="2.14" r="2.14"/><circle class="cls-1" cx="1528.14" cy="2.14" r="2.14"/><circle class="cls-1" cx="1599.14" cy="2.14" r="2.14"/><circle class="cls-1" cx="1670.14" cy="2.14" r="2.14"/><circle class="cls-1" cx="1741.14" cy="2.14" r="2.14"/><circle class="cls-1" cx="2.14" cy="29.14" r="2.14"/><circle class="cls-1" cx="73.14" cy="29.14" r="2.14"/><circle class="cls-1" cx="144.14" cy="29.14" r="2.14"/><circle class="cls-1" cx="215.14" cy="29.14" r="2.14"/><circle class="cls-1" cx="357.14" cy="29.14" r="2.14"/><circle class="cls-1" cx="428.14" cy="29.14" r="2.14"/><circle class="cls-1" cx="499.14" cy="29.14" r="2.14"/><circle class="cls-1" cx="570.14" cy="29.14" r="2.14"/><circle class="cls-1" cx="641.14" cy="29.14" r="2.14"/><circle class="cls-1" cx="712.14" cy="29.14" r="2.14"/><circle class="cls-1" cx="783.14" cy="29.14" r="2.14"/><circle class="cls-1" cx="854.14" cy="29.14" r="2.14"/><circle class="cls-1" cx="925.14" cy="29.14" r="2.14"/><circle class="cls-1" cx="996.14" cy="29.14" r="2.14"/><circle class="cls-1" cx="1067.14" cy="29.14" r="2.14"/><circle class="cls-1" cx="1138.14" cy="29.14" r="2.14"/><circle class="cls-1" cx="1280.14" cy="29.14" r="2.14"/><circle class="cls-1" cx="1351.14" cy="29.14" r="2.14"/><circle class="cls-1" cx="1422.14" cy="29.14" r="2.14"/><circle class="cls-1" cx="1564.14" cy="29.14" r="2.14"/><circle class="cls-1" cx="1635.14" cy="29.14" r="2.14"/><circle class="cls-1" cx="1706.14" cy="29.14" r="2.14"/><circle class="cls-1" cx="37.14" cy="56.14" r="2.14"/><circle class="cls-1" cx="108.14" cy="56.14" r="2.14"/><circle class="cls-1" cx="179.14" cy="56.14" r="2.14"/><circle class="cls-1" cx="250.14" cy="56.14" r="2.14"/><circle class="cls-1" cx="321.14" cy="56.14" r="2.14"/><circle class="cls-1" cx="392.14" cy="56.14" r="2.14"/><circle class="cls-1" cx="463.14" cy="56.14" r="2.14"/><circle class="cls-1" cx="605.14" cy="56.14" r="2.14"/><circle class="cls-1" cx="676.14" cy="56.14" r="2.14"/><circle class="cls-1" cx="747.14" cy="56.14" r="2.14"/><circle class="cls-1" cx="818.14" cy="56.14" r="2.14"/><circle class="cls-1" cx="889.14" cy="56.14" r="2.14"/><circle class="cls-1" cx="960.14" cy="56.14" r="2.14"/><circle class="cls-1" cx="1031.14" cy="56.14" r="2.14"/><circle class="cls-1" cx="1102.14" cy="56.14" r="2.14"/><circle class="cls-1" cx="1173.14" cy="56.14" r="2.14"/><circle class="cls-1" cx="1244.14" cy="56.14" r="2.14"/><circle class="cls-1" cx="1315.14" cy="56.14" r="2.14"/><circle class="cls-1" cx="1386.14" cy="56.14" r="2.14"/><circle class="cls-1" cx="1457.14" cy="56.14" r="2.14"/><circle class="cls-1" cx="1599.14" cy="56.14" r="2.14"/><circle class="cls-1" cx="1670.14" cy="56.14" r="2.14"/><circle class="cls-1" cx="1741.14" cy="56.14" r="2.14"/><circle class="cls-1" cx="2.14" cy="83.14" r="2.14"/><circle class="cls-1" cx="73.14" cy="83.14" r="2.14"/><circle class="cls-1" cx="144.14" cy="83.14" r="2.14"/><circle class="cls-1" cx="215.14" cy="83.14" r="2.14"/><circle class="cls-1" cx="286.14" cy="83.14" r="2.14"/><circle class="cls-1" cx="357.14" cy="83.14" r="2.14"/><circle class="cls-1" cx="428.14" cy="83.14" r="2.14"/><circle class="cls-1" cx="499.14" cy="83.14" r="2.14"/><circle class="cls-1" cx="570.14" cy="83.14" r="2.14"/><circle class="cls-1" cx="641.14" cy="83.14" r="2.14"/><circle class="cls-1" cx="712.14" cy="83.14" r="2.14"/><circle class="cls-1" cx="783.14" cy="83.14" r="2.14"/><circle class="cls-1" cx="854.14" cy="83.14" r="2.14"/><circle class="cls-1" cx="925.14" cy="83.14" r="2.14"/><circle class="cls-1" cx="996.14" cy="83.14" r="2.14"/><circle class="cls-1" cx="1067.14" cy="83.14" r="2.14"/><circle class="cls-1" cx="1138.14" cy="83.14" r="2.14"/><circle class="cls-1" cx="1209.14" cy="83.14" r="2.14"/><circle class="cls-1" cx="1280.14" cy="83.14" r="2.14"/><circle class="cls-1" cx="1351.14" cy="83.14" r="2.14"/><circle class="cls-1" cx="1422.14" cy="83.14" r="2.14"/><circle class="cls-1" cx="1564.14" cy="83.14" r="2.14"/><circle class="cls-1" cx="1635.14" cy="83.14" r="2.14"/><circle class="cls-1" cx="1706.14" cy="83.14" r="2.14"/><circle class="cls-1" cx="37.14" cy="110.14" r="2.14"/><circle class="cls-1" cx="108.14" cy="110.14" r="2.14"/><circle class="cls-1" cx="179.14" cy="110.14" r="2.14"/><circle class="cls-1" cx="250.14" cy="110.14" r="2.14"/><circle class="cls-1" cx="321.14" cy="110.14" r="2.14"/><circle class="cls-1" cx="392.14" cy="110.14" r="2.14"/><circle class="cls-1" cx="463.14" cy="110.14" r="2.14"/><circle class="cls-1" cx="534.14" cy="110.14" r="2.14"/><circle class="cls-1" cx="605.14" cy="110.14" r="2.14"/><circle class="cls-1" cx="676.14" cy="110.14" r="2.14"/><circle class="cls-1" cx="747.14" cy="110.14" r="2.14"/><circle class="cls-1" cx="818.14" cy="110.14" r="2.14"/><circle class="cls-1" cx="889.14" cy="110.14" r="2.14"/><circle class="cls-1" cx="960.14" cy="110.14" r="2.14"/><circle class="cls-1" cx="1031.14" cy="110.14" r="2.14"/><circle class="cls-1" cx="1102.14" cy="110.14" r="2.14"/><circle class="cls-1" cx="1173.14" cy="110.14" r="2.14"/><circle class="cls-1" cx="1244.14" cy="110.14" r="2.14"/><circle class="cls-1" cx="1315.14" cy="110.14" r="2.14"/><circle class="cls-1" cx="1386.14" cy="110.14" r="2.14"/><circle class="cls-1" cx="1457.14" cy="110.14" r="2.14"/><circle class="cls-1" cx="1528.14" cy="110.14" r="2.14"/><circle class="cls-1" cx="1599.14" cy="110.14" r="2.14"/><circle class="cls-1" cx="1670.14" cy="110.14" r="2.14"/><circle class="cls-1" cx="2.14" cy="137.14" r="2.14"/><circle class="cls-1" cx="73.14" cy="137.14" r="2.14"/><circle class="cls-1" cx="144.14" cy="137.14" r="2.14"/><circle class="cls-1" cx="215.14" cy="137.14" r="2.14"/><circle class="cls-1" cx="286.14" cy="137.14" r="2.14"/><circle class="cls-1" cx="357.14" cy="137.14" r="2.14"/><circle class="cls-1" cx="428.14" cy="137.14" r="2.14"/><circle class="cls-1" cx="499.14" cy="137.14" r="2.14"/><circle class="cls-1" cx="570.14" cy="137.14" r="2.14"/><circle class="cls-1" cx="641.14" cy="137.14" r="2.14"/><circle class="cls-1" cx="712.14" cy="137.14" r="2.14"/><circle class="cls-1" cx="783.14" cy="137.14" r="2.14"/><circle class="cls-1" cx="854.14" cy="137.14" r="2.14"/><circle class="cls-1" cx="925.14" cy="137.14" r="2.14"/><circle class="cls-1" cx="996.14" cy="137.14" r="2.14"/><circle class="cls-1" cx="1067.14" cy="137.14" r="2.14"/><circle class="cls-1" cx="1138.14" cy="137.14" r="2.14"/><circle class="cls-1" cx="1209.14" cy="137.14" r="2.14"/><circle class="cls-1" cx="1280.14" cy="137.14" r="2.14"/><circle class="cls-1" cx="1351.14" cy="137.14" r="2.14"/><circle class="cls-1" cx="1422.14" cy="137.14" r="2.14"/><circle class="cls-1" cx="1493.14" cy="137.14" r="2.14"/><circle class="cls-1" cx="1564.14" cy="137.14" r="2.14"/><circle class="cls-1" cx="1635.14" cy="137.14" r="2.14"/><circle class="cls-1" cx="1706.14" cy="137.14" r="2.14"/><circle class="cls-1" cx="37.14" cy="164.14" r="2.14"/><circle class="cls-1" cx="108.14" cy="164.14" r="2.14"/><circle class="cls-1" cx="179.14" cy="164.14" r="2.14"/><circle class="cls-1" cx="250.14" cy="164.14" r="2.14"/><circle class="cls-1" cx="321.14" cy="164.14" r="2.14"/><circle class="cls-1" cx="392.14" cy="164.14" r="2.14"/><circle class="cls-1" cx="463.14" cy="164.14" r="2.14"/><circle class="cls-1" cx="534.14" cy="164.14" r="2.14"/><circle class="cls-1" cx="605.14" cy="164.14" r="2.14"/><circle class="cls-1" cx="676.14" cy="164.14" r="2.14"/><circle class="cls-1" cx="747.14" cy="164.14" r="2.14"/><circle class="cls-1" cx="818.14" cy="164.14" r="2.14"/><circle class="cls-1" cx="889.14" cy="164.14" r="2.14"/><circle class="cls-1" cx="960.14" cy="164.14" r="2.14"/><circle class="cls-1" cx="1031.14" cy="164.14" r="2.14"/><circle class="cls-1" cx="1102.14" cy="164.14" r="2.14"/><circle class="cls-1" cx="1173.14" cy="164.14" r="2.14"/><circle class="cls-1" cx="1244.14" cy="164.14" r="2.14"/><circle class="cls-1" cx="1315.14" cy="164.14" r="2.14"/><circle class="cls-1" cx="1386.14" cy="164.14" r="2.14"/><circle class="cls-1" cx="1457.14" cy="164.14" r="2.14"/><circle class="cls-1" cx="1528.14" cy="164.14" r="2.14"/><circle class="cls-1" cx="1599.14" cy="164.14" r="2.14"/><circle class="cls-1" cx="1670.14" cy="164.14" r="2.14"/><circle class="cls-1" cx="1741.14" cy="164.14" r="2.14"/><circle class="cls-1" cx="2.14" cy="191.14" r="2.14"/><circle class="cls-1" cx="73.14" cy="191.14" r="2.14"/><circle class="cls-1" cx="215.14" cy="191.14" r="2.14"/><circle class="cls-1" cx="286.14" cy="191.14" r="2.14"/><circle class="cls-1" cx="357.14" cy="191.14" r="2.14"/><circle class="cls-1" cx="428.14" cy="191.14" r="2.14"/><circle class="cls-1" cx="499.14" cy="191.14" r="2.14"/><circle class="cls-1" cx="570.14" cy="191.14" r="2.14"/><circle class="cls-1" cx="641.14" cy="191.14" r="2.14"/><circle class="cls-1" cx="712.14" cy="191.14" r="2.14"/><circle class="cls-1" cx="783.14" cy="191.14" r="2.14"/><circle class="cls-1" cx="854.14" cy="191.14" r="2.14"/><circle class="cls-1" cx="925.14" cy="191.14" r="2.14"/><circle class="cls-1" cx="996.14" cy="191.14" r="2.14"/><circle class="cls-1" cx="1067.14" cy="191.14" r="2.14"/><circle class="cls-1" cx="1138.14" cy="191.14" r="2.14"/><circle class="cls-1" cx="1209.14" cy="191.14" r="2.14"/><circle class="cls-1" cx="1280.14" cy="191.14" r="2.14"/><circle class="cls-1" cx="1351.14" cy="191.14" r="2.14"/><circle class="cls-1" cx="1422.14" cy="191.14" r="2.14"/><circle class="cls-1" cx="1493.14" cy="191.14" r="2.14"/><circle class="cls-1" cx="1564.14" cy="191.14" r="2.14"/><circle class="cls-1" cx="1635.14" cy="191.14" r="2.14"/><circle class="cls-1" cx="1706.14" cy="191.14" r="2.14"/><circle class="cls-1" cx="37.14" cy="218.14" r="2.14"/><circle class="cls-1" cx="108.14" cy="218.14" r="2.14"/><circle class="cls-1" cx="179.14" cy="218.14" r="2.14"/><circle class="cls-1" cx="250.14" cy="218.14" r="2.14"/><circle class="cls-1" cx="321.14" cy="218.14" r="2.14"/><circle class="cls-1" cx="392.14" cy="218.14" r="2.14"/><circle class="cls-1" cx="463.14" cy="218.14" r="2.14"/><circle class="cls-1" cx="534.14" cy="218.14" r="2.14"/><circle class="cls-1" cx="605.14" cy="218.14" r="2.14"/><circle class="cls-1" cx="676.14" cy="218.14" r="2.14"/><circle class="cls-1" cx="747.14" cy="218.14" r="2.14"/><circle class="cls-1" cx="818.14" cy="218.14" r="2.14"/><circle class="cls-1" cx="889.14" cy="218.14" r="2.14"/><circle class="cls-1" cx="960.14" cy="218.14" r="2.14"/><circle class="cls-1" cx="1031.14" cy="218.14" r="2.14"/><circle class="cls-1" cx="1102.14" cy="218.14" r="2.14"/><circle class="cls-1" cx="1173.14" cy="218.14" r="2.14"/><circle class="cls-1" cx="1244.14" cy="218.14" r="2.14"/><circle class="cls-1" cx="1315.14" cy="218.14" r="2.14"/><circle class="cls-1" cx="1386.14" cy="218.14" r="2.14"/><circle class="cls-1" cx="1457.14" cy="218.14" r="2.14"/><circle class="cls-1" cx="1528.14" cy="218.14" r="2.14"/><circle class="cls-1" cx="1599.14" cy="218.14" r="2.14"/><circle class="cls-1" cx="1670.14" cy="218.14" r="2.14"/><circle class="cls-1" cx="1741.14" cy="218.14" r="2.14"/><circle class="cls-1" cx="2.14" cy="245.14" r="2.14"/><circle class="cls-1" cx="73.14" cy="245.14" r="2.14"/><circle class="cls-1" cx="144.14" cy="245.14" r="2.14"/><circle class="cls-1" cx="215.14" cy="245.14" r="2.14"/><circle class="cls-1" cx="286.14" cy="245.14" r="2.14"/><circle class="cls-1" cx="357.14" cy="245.14" r="2.14"/><circle class="cls-1" cx="428.14" cy="245.14" r="2.14"/><circle class="cls-1" cx="499.14" cy="245.14" r="2.14"/><circle class="cls-1" cx="570.14" cy="245.14" r="2.14"/><circle class="cls-1" cx="641.14" cy="245.14" r="2.14"/><circle class="cls-1" cx="712.14" cy="245.14" r="2.14"/><circle class="cls-1" cx="783.14" cy="245.14" r="2.14"/><circle class="cls-1" cx="854.14" cy="245.14" r="2.14"/><circle class="cls-1" cx="925.14" cy="245.14" r="2.14"/><circle class="cls-1" cx="996.14" cy="245.14" r="2.14"/><circle class="cls-1" cx="1067.14" cy="245.14" r="2.14"/><circle class="cls-1" cx="1138.14" cy="245.14" r="2.14"/><circle class="cls-1" cx="1209.14" cy="245.14" r="2.14"/><circle class="cls-1" cx="1280.14" cy="245.14" r="2.14"/><circle class="cls-1" cx="1351.14" cy="245.14" r="2.14"/><circle class="cls-1" cx="1422.14" cy="245.14" r="2.14"/><circle class="cls-1" cx="1493.14" cy="245.14" r="2.14"/><circle class="cls-1" cx="1564.14" cy="245.14" r="2.14"/><circle class="cls-1" cx="1635.14" cy="245.14" r="2.14"/><circle class="cls-1" cx="1706.14" cy="245.14" r="2.14"/><circle class="cls-1" cx="37.14" cy="272.14" r="2.14"/><circle class="cls-1" cx="108.14" cy="272.14" r="2.14"/><circle class="cls-1" cx="179.14" cy="272.14" r="2.14"/><circle class="cls-1" cx="250.14" cy="272.14" r="2.14"/><circle class="cls-1" cx="321.14" cy="272.14" r="2.14"/><circle class="cls-1" cx="392.14" cy="272.14" r="2.14"/><circle class="cls-1" cx="463.14" cy="272.14" r="2.14"/><circle class="cls-1" cx="534.14" cy="272.14" r="2.14"/><circle class="cls-1" cx="605.14" cy="272.14" r="2.14"/><circle class="cls-1" cx="676.14" cy="272.14" r="2.14"/><circle class="cls-1" cx="747.14" cy="272.14" r="2.14"/><circle class="cls-1" cx="818.14" cy="272.14" r="2.14"/><circle class="cls-1" cx="889.14" cy="272.14" r="2.14"/><circle class="cls-1" cx="960.14" cy="272.14" r="2.14"/><circle class="cls-1" cx="1031.14" cy="272.14" r="2.14"/><circle class="cls-1" cx="1102.14" cy="272.14" r="2.14"/><circle class="cls-1" cx="1173.14" cy="272.14" r="2.14"/><circle class="cls-1" cx="1244.14" cy="272.14" r="2.14"/><circle class="cls-1" cx="1315.14" cy="272.14" r="2.14"/><circle class="cls-1" cx="1386.14" cy="272.14" r="2.14"/><circle class="cls-1" cx="1457.14" cy="272.14" r="2.14"/><circle class="cls-1" cx="1528.14" cy="272.14" r="2.14"/><circle class="cls-1" cx="1599.14" cy="272.14" r="2.14"/><circle class="cls-1" cx="1670.14" cy="272.14" r="2.14"/><circle class="cls-1" cx="1741.14" cy="272.14" r="2.14"/><circle class="cls-1" cx="2.14" cy="299.14" r="2.14"/><circle class="cls-1" cx="73.14" cy="299.14" r="2.14"/><circle class="cls-1" cx="144.14" cy="299.14" r="2.14"/><circle class="cls-1" cx="215.14" cy="299.14" r="2.14"/><circle class="cls-1" cx="286.14" cy="299.14" r="2.14"/><circle class="cls-1" cx="357.14" cy="299.14" r="2.14"/><circle class="cls-1" cx="428.14" cy="299.14" r="2.14"/><circle class="cls-1" cx="570.14" cy="299.14" r="2.14"/><circle class="cls-1" cx="641.14" cy="299.14" r="2.14"/><circle class="cls-1" cx="712.14" cy="299.14" r="2.14"/><circle class="cls-1" cx="783.14" cy="299.14" r="2.14"/><circle class="cls-1" cx="854.14" cy="299.14" r="2.14"/><circle class="cls-1" cx="925.14" cy="299.14" r="2.14"/><circle class="cls-1" cx="996.14" cy="299.14" r="2.14"/><circle class="cls-1" cx="1067.14" cy="299.14" r="2.14"/><circle class="cls-1" cx="1138.14" cy="299.14" r="2.14"/><circle class="cls-1" cx="1209.14" cy="299.14" r="2.14"/><circle class="cls-1" cx="1280.14" cy="299.14" r="2.14"/><circle class="cls-1" cx="1351.14" cy="299.14" r="2.14"/><circle class="cls-1" cx="1422.14" cy="299.14" r="2.14"/><circle class="cls-1" cx="1493.14" cy="299.14" r="2.14"/><circle class="cls-1" cx="1564.14" cy="299.14" r="2.14"/><circle class="cls-1" cx="1635.14" cy="299.14" r="2.14"/><circle class="cls-1" cx="1706.14" cy="299.14" r="2.14"/><circle class="cls-1" cx="37.14" cy="326.14" r="2.14"/><circle class="cls-1" cx="108.14" cy="326.14" r="2.14"/><circle class="cls-1" cx="179.14" cy="326.14" r="2.14"/><circle class="cls-1" cx="250.14" cy="326.14" r="2.14"/><circle class="cls-1" cx="321.14" cy="326.14" r="2.14"/><circle class="cls-1" cx="392.14" cy="326.14" r="2.14"/><circle class="cls-1" cx="605.14" cy="326.14" r="2.14"/><circle class="cls-1" cx="676.14" cy="326.14" r="2.14"/><circle class="cls-1" cx="747.14" cy="326.14" r="2.14"/><circle class="cls-1" cx="818.14" cy="326.14" r="2.14"/><circle class="cls-1" cx="889.14" cy="326.14" r="2.14"/><circle class="cls-1" cx="960.14" cy="326.14" r="2.14"/><circle class="cls-1" cx="1031.14" cy="326.14" r="2.14"/><circle class="cls-1" cx="1173.14" cy="326.14" r="2.14"/><circle class="cls-1" cx="1244.14" cy="326.14" r="2.14"/><circle class="cls-1" cx="1315.14" cy="326.14" r="2.14"/><circle class="cls-1" cx="1386.14" cy="326.14" r="2.14"/><circle class="cls-1" cx="1457.14" cy="326.14" r="2.14"/><circle class="cls-1" cx="1528.14" cy="326.14" r="2.14"/><circle class="cls-1" cx="1599.14" cy="326.14" r="2.14"/><circle class="cls-1" cx="1670.14" cy="326.14" r="2.14"/><circle class="cls-1" cx="1741.14" cy="326.14" r="2.14"/><circle class="cls-1" cx="2.14" cy="353.14" r="2.14"/><circle class="cls-1" cx="73.14" cy="353.14" r="2.14"/><circle class="cls-1" cx="144.14" cy="353.14" r="2.14"/><circle class="cls-1" cx="215.14" cy="353.14" r="2.14"/><circle class="cls-1" cx="286.14" cy="353.14" r="2.14"/><circle class="cls-1" cx="357.14" cy="353.14" r="2.14"/><circle class="cls-1" cx="428.14" cy="353.14" r="2.14"/><circle class="cls-1" cx="570.14" cy="353.14" r="2.14"/><circle class="cls-1" cx="641.14" cy="353.14" r="2.14"/><circle class="cls-1" cx="712.14" cy="353.14" r="2.14"/><circle class="cls-1" cx="783.14" cy="353.14" r="2.14"/><circle class="cls-1" cx="854.14" cy="353.14" r="2.14"/><circle class="cls-1" cx="925.14" cy="353.14" r="2.14"/><circle class="cls-1" cx="996.14" cy="353.14" r="2.14"/><circle class="cls-1" cx="1067.14" cy="353.14" r="2.14"/><circle class="cls-1" cx="1138.14" cy="353.14" r="2.14"/><circle class="cls-1" cx="1209.14" cy="353.14" r="2.14"/><circle class="cls-1" cx="1280.14" cy="353.14" r="2.14"/><circle class="cls-1" cx="1351.14" cy="353.14" r="2.14"/><circle class="cls-1" cx="1422.14" cy="353.14" r="2.14"/><circle class="cls-1" cx="1493.14" cy="353.14" r="2.14"/><circle class="cls-1" cx="1564.14" cy="353.14" r="2.14"/><circle class="cls-1" cx="1635.14" cy="353.14" r="2.14"/><circle class="cls-1" cx="1706.14" cy="353.14" r="2.14"/><circle class="cls-1" cx="37.14" cy="380.14" r="2.14"/><circle class="cls-1" cx="108.14" cy="380.14" r="2.14"/><circle class="cls-1" cx="179.14" cy="380.14" r="2.14"/><circle class="cls-1" cx="250.14" cy="380.14" r="2.14"/><circle class="cls-1" cx="321.14" cy="380.14" r="2.14"/><circle class="cls-1" cx="392.14" cy="380.14" r="2.14"/><circle class="cls-1" cx="463.14" cy="380.14" r="2.14"/><circle class="cls-1" cx="534.14" cy="380.14" r="2.14"/><circle class="cls-1" cx="605.14" cy="380.14" r="2.14"/><circle class="cls-1" cx="676.14" cy="380.14" r="2.14"/><circle class="cls-1" cx="747.14" cy="380.14" r="2.14"/><circle class="cls-1" cx="818.14" cy="380.14" r="2.14"/><circle class="cls-1" cx="889.14" cy="380.14" r="2.14"/><circle class="cls-1" cx="960.14" cy="380.14" r="2.14"/><circle class="cls-1" cx="1031.14" cy="380.14" r="2.14"/><circle class="cls-1" cx="1102.14" cy="380.14" r="2.14"/><circle class="cls-1" cx="1173.14" cy="380.14" r="2.14"/><circle class="cls-1" cx="1244.14" cy="380.14" r="2.14"/><circle class="cls-1" cx="1315.14" cy="380.14" r="2.14"/><circle class="cls-1" cx="1386.14" cy="380.14" r="2.14"/><circle class="cls-1" cx="1457.14" cy="380.14" r="2.14"/><circle class="cls-1" cx="1528.14" cy="380.14" r="2.14"/><circle class="cls-1" cx="1599.14" cy="380.14" r="2.14"/><circle class="cls-1" cx="1670.14" cy="380.14" r="2.14"/><circle class="cls-1" cx="1741.14" cy="380.14" r="2.14"/><circle class="cls-1" cx="2.14" cy="407.14" r="2.14"/><circle class="cls-1" cx="73.14" cy="407.14" r="2.14"/><circle class="cls-1" cx="144.14" cy="407.14" r="2.14"/><circle class="cls-1" cx="215.14" cy="407.14" r="2.14"/><circle class="cls-1" cx="286.14" cy="407.14" r="2.14"/><circle class="cls-1" cx="357.14" cy="407.14" r="2.14"/><circle class="cls-1" cx="428.14" cy="407.14" r="2.14"/><circle class="cls-1" cx="499.14" cy="407.14" r="2.14"/><circle class="cls-1" cx="570.14" cy="407.14" r="2.14"/><circle class="cls-1" cx="641.14" cy="407.14" r="2.14"/><circle class="cls-1" cx="712.14" cy="407.14" r="2.14"/><circle class="cls-1" cx="854.14" cy="407.14" r="2.14"/><circle class="cls-1" cx="925.14" cy="407.14" r="2.14"/><circle class="cls-1" cx="996.14" cy="407.14" r="2.14"/><circle class="cls-1" cx="1067.14" cy="407.14" r="2.14"/><circle class="cls-1" cx="1138.14" cy="407.14" r="2.14"/><circle class="cls-1" cx="1209.14" cy="407.14" r="2.14"/><circle class="cls-1" cx="1280.14" cy="407.14" r="2.14"/><circle class="cls-1" cx="1351.14" cy="407.14" r="2.14"/><circle class="cls-1" cx="1422.14" cy="407.14" r="2.14"/><circle class="cls-1" cx="1493.14" cy="407.14" r="2.14"/><circle class="cls-1" cx="1564.14" cy="407.14" r="2.14"/><circle class="cls-1" cx="1635.14" cy="407.14" r="2.14"/><circle class="cls-1" cx="1706.14" cy="407.14" r="2.14"/><circle class="cls-1" cx="286.26" cy="29" r="2.41"/><path class="cls-2" d="M286.26,27.75a11.29,11.29,0,0,1,3.6-7.87"/><path class="cls-2" d="M285.38,28.11a11.29,11.29,0,0,1-3-8.11"/><path class="cls-2" d="M285,29a11.29,11.29,0,0,1-7.87-3.6"/><path class="cls-2" d="M285.38,29.88a11.29,11.29,0,0,1-8.11,3"/><path class="cls-2" d="M286.26,30.25a11.29,11.29,0,0,1-3.6,7.87"/><path class="cls-2" d="M287.14,29.88a11.29,11.29,0,0,1,3,8.11"/><path class="cls-2" d="M287.51,29a11.29,11.29,0,0,1,7.87,3.6"/><path class="cls-2" d="M287.14,28.11a11.29,11.29,0,0,1,8.11-3"/><line class="cls-2" x1="1208.89" y1="14" x2="1208.89" y2="45"/><line class="cls-2" x1="1224.89" y1="30" x2="1193.89" y2="30"/><line class="cls-2" x1="1201.19" y1="21.32" x2="1217.14" y2="37.26"/><line class="cls-2" x1="1217.14" y1="21.73" x2="1201.19" y2="37.67"/><circle class="cls-2" cx="146.2" cy="193.17" r="20.17"/><path class="cls-2" d="M130.89,194h10.86a2.93,2.93,0,0,0,3.14-2.67v.06a2.82,2.82,0,0,0-2.64-3.05"/><path class="cls-2" d="M134.89,209h11.32c1.61,0,2.68-1.74,2.68-3.35v0a2.5,2.5,0,0,0-2.64-2.67"/><path class="cls-2" d="M135.89,188h12c1.61,0,3-.82,3-2.43v0a2.71,2.71,0,0,0-3-2.6h-19"/><line class="cls-2" x1="149.89" y1="194" x2="161.89" y2="194"/><line class="cls-2" x1="153.89" y1="198" x2="165.89" y2="198"/><polygon class="cls-2" points="783.23 399.52 785.46 404.89 790.83 407.12 785.46 409.35 783.23 414.72 781 409.35 775.63 407.12 781 404.89 783.23 399.52"/><polygon class="cls-2" points="534.23 48.52 536.46 53.89 541.83 56.12 536.46 58.35 534.23 63.72 532 58.35 526.63 56.12 532 53.89 534.23 48.52"/><circle class="cls-2" cx="1102.45" cy="325.46" r="11.39" transform="translate(92.76 874.88) rotate(-45)"/><path class="cls-2" d="M1087.89,314.44c-1-1.86-1.34-3.19-.8-3.73,1-1,4.47.85,9,4.4"/><path class="cls-2" d="M1112.62,331.41c4,5,6.19,9,5.16,10-1.55,1.55-9.67-4.07-18.14-12.54A94.05,94.05,0,0,1,1090.2,318"/><line class="cls-2" x1="1110.64" y1="317.48" x2="1105.07" y2="323.05"/><line class="cls-2" x1="1106.86" y1="315.41" x2="1103.15" y2="319.12"/><circle class="cls-2" cx="1743.18" cy="112.22" r="11.86" transform="translate(431.21 1265.48) rotate(-45)"/><path class="cls-2" d="M1732.84,107.73c2.28,0,2.28,1.09,4.55,1.09s2.28-1.09,4.55-1.09,2.28,1.09,4.55,1.09"/><path class="cls-2" d="M1732.84,112.64c2.1,0,2.1,1.09,4.2,1.09s2.1-1.09,4.2-1.09,2.1,1.09,4.21,1.09,2.1-1.09,4.21-1.09"/><circle class="cls-2" cx="499.2" cy="326.17" r="35.02"/><path class="cls-2" d="M499.2,301.8a24.36,24.36,0,0,1,24.36,24.36"/><line class="cls-2" x1="498.23" y1="336.67" x2="484.36" y2="350.54"/><line class="cls-2" x1="488.99" y1="336.67" x2="475.12" y2="350.54"/><circle class="cls-1" cx="505.22" cy="318.5" r="4.51"/><circle class="cls-2" cx="1496.87" cy="82.85" r="14.68" transform="translate(337.81 1033.68) rotate(-42.53)"/><line class="cls-2" x1="1482.69" y1="79.11" x2="1494.42" y2="29.14"/><line class="cls-2" x1="1499.37" y1="97.29" x2="1547.15" y2="85.28"/><line class="cls-2" x1="1499.72" y1="82.86" x2="1550.56" y2="37.67"/><line class="cls-2" x1="1500.76" y1="68.7" x2="1520.64" y2="36.09"/><circle class="cls-2" cx="1499.72" cy="82.86" r="2.69" transform="translate(338.56 1035.6) rotate(-42.53)"/><path class="cls-2" d="M1636.07,345.8l1.26,3.2a.54.54,0,0,0,.66.32l3.29-1a.54.54,0,0,1,.62.78l-1.71,3a.54.54,0,0,0,.16.71l2.84,1.94a.54.54,0,0,1-.22,1l-3.4.52a.54.54,0,0,0-.45.57l.25,3.43a.54.54,0,0,1-.9.43l-2.52-2.33a.54.54,0,0,0-.73,0l-2.52,2.33a.54.54,0,0,1-.9-.43l.25-3.43a.54.54,0,0,0-.45-.57l-3.4-.52a.54.54,0,0,1-.22-1l2.84-1.94a.54.54,0,0,0,.16-.71l-1.71-3a.54.54,0,0,1,.62-.78l3.29,1a.54.54,0,0,0,.66-.32l1.26-3.2A.54.54,0,0,1,1636.07,345.8Z"/><rect class="cls-3" x="1687.96" y="334.83" width="40.87" height="40.87" rx="4.65" ry="4.65" transform="translate(8.43 748.87) rotate(-24.78)"/><line class="cls-2" x1="1683.15" y1="345.77" x2="1733.76" y2="364.4"/><line class="cls-2" x1="1717.77" y1="329.78" x2="1699.14" y2="380.39"/><circle class="cls-3" cx="1708.39" cy="355.26" r="6.36" transform="translate(8.43 748.87) rotate(-24.78)"/><circle class="cls-2" cx="1708.39" cy="355.26" r="15.03" transform="translate(8.43 748.87) rotate(-24.78)"/></g></svg>