<?xml version="1.0" encoding="utf-8"?>
<!-- Generator: Adobe Illustrator 19.1.0, SVG Export Plug-In . SVG Version: 6.00 Build 0)  -->
<svg version="1.1" xmlns="http://www.w3.org/2000/svg" xmlns:xlink="http://www.w3.org/1999/xlink" x="0px" y="0px"
	 viewBox="0 0 14.6 14.6" enable-background="new 0 0 14.6 14.6" xml:space="preserve">
<g id="Layer_2">
</g>
<g id="Layer_5">
</g>
<g id="Layer_1">
	<g>
		<g>
			<path fill="#8151A8" d="M4.1,14.6c-0.3,0-0.5-0.2-0.5-0.5c0-1.7-1.4-3.1-3.1-3.1C0.2,11,0,10.8,0,10.5S0.2,10,0.5,10
				c2.3,0,4.1,1.9,4.1,4.1C4.6,14.4,4.4,14.6,4.1,14.6z"/>
		</g>
		<g>
			<path fill="#8151A8" d="M9.4,14.6c-0.3,0-0.5-0.2-0.5-0.5c0-4.6-3.8-8.4-8.4-8.4C0.2,5.8,0,5.5,0,5.2s0.2-0.5,0.5-0.5
				c5.2,0,9.4,4.2,9.4,9.4C9.9,14.4,9.7,14.6,9.4,14.6z"/>
		</g>
		<g>
			<path fill="#8151A8" d="M14.1,14.6c-0.3,0-0.5-0.2-0.5-0.5C13.6,6.9,7.7,1,0.5,1C0.2,1,0,0.8,0,0.5S0.2,0,0.5,0
				c7.8,0,14.1,6.3,14.1,14.1C14.6,14.4,14.4,14.6,14.1,14.6z"/>
		</g>
	</g>
</g>
<g id="Layer_3" display="none">
</g>
<g id="Layer_4">
</g>
</svg>
